PathFileType  4	(X/Y/Z) C:\Users\antoi\Documents\MyRepositories\mobilecap\ResultsAnalysis
DataRate	CameraRate	NumFrames	NumMarkers	Units	OrigDataRate	OrigDataStartFrame	OrigNumFrames
100.0	100.0	4	51	mm	100.0	65	259
Frame#	Time	r_knee			r_shank_antsup			r_ankle			r_calc			r_5meta			r_toe			L_knee			L_shank_antsup			L_ankle			L_calc			L_5meta			L_toe			r_sh2			r_sh3			r_sh4			L_sh2			L_sh3			r_thigh1			r_thigh2			r_thigh3			r_thigh4			r_thigh5			L_thigh1			L_thigh2			L_thigh3			L_thigh4			r.ASIS			r.PSIS			L.ASIS			L.PSIS			C7			R_Shoulder			L_Shoulder			R_Sternum			L_Sternum			R_humerus			R_elbow_med			R_elbow_lat			R_forearm			R_wrist_radius			R_wrist_ulna			L_humerus			L_elbow_med			L_elbow_lat			L_forearm			L_wrist_radius			L_wrist_ulna			R_HJC			L_HJC			R_HJC_reg			L_HJC_reg			
		X1	Y1	Z1	X2	Y2	Z2	X3	Y3	Z3	X4	Y4	Z4	X5	Y5	Z5	X6	Y6	Z6	X7	Y7	Z7	X8	Y8	Z8	X9	Y9	Z9	X10	Y10	Z10	X11	Y11	Z11	X12	Y12	Z12	X13	Y13	Z13	X14	Y14	Z14	X15	Y15	Z15	X16	Y16	Z16	X17	Y17	Z17	X18	Y18	Z18	X19	Y19	Z19	X20	Y20	Z20	X21	Y21	Z21	X22	Y22	Z22	X23	Y23	Z23	X24	Y24	Z24	X25	Y25	Z25	X26	Y26	Z26	X27	Y27	Z27	X28	Y28	Z28	X29	Y29	Z29	X30	Y30	Z30	X31	Y31	Z31	X32	Y32	Z32	X33	Y33	Z33	X34	Y34	Z34	X35	Y35	Z35	X36	Y36	Z36	X37	Y37	Z37	X38	Y38	Z38	X39	Y39	Z39	X40	Y40	Z40	X41	Y41	Z41	X42	Y42	Z42	X43	Y43	Z43	X44	Y44	Z44	X45	Y45	Z45	X46	Y46	Z46	X47	Y47	Z47	X48	Y48	Z48	X49	Y49	Z49	X50	Y50	Z50	X51	Y51	Z51	

65	0.64000000	-933.14010	798.88406	-416.81228	-948.08476	675.15445	-431.58550	-1206.96675	452.08475	-433.85183	-1283.90091	437.92307	-485.23334	-1108.86911	349.32802	-384.36295	-1061.81088	361.12116	-456.75022	-982.74699	778.87129	-762.00621	-976.38143	663.09143	-737.24331	-1235.65648	423.13765	-730.79603	-1307.42639	403.31920	-679.17954	-1113.81953	344.10885	-768.09303	-1075.38536	361.79948	-699.79444	-1011.67431	580.27664	-455.51176	-1003.61572	697.83883	-382.29234	-1060.75520	596.31552	-387.01171	-1044.41342	702.41623	-783.57020	-1088.20297	589.98906	-792.39798	-940.67444	1051.13409	-436.12070	-892.44774	949.70473	-448.47660	-903.76368	911.36404	-393.69295	-1008.97439	1007.43517	-355.97785	-956.12911	901.84308	-376.61984	-993.91099	1039.05737	-781.22467	-934.95350	916.80123	-767.55619	-1093.53020	990.98623	-812.01981	-1035.00745	866.10465	-794.60297	-1027.99688	1219.40553	-446.43512	-1202.25432	1336.08865	-526.27729	-1034.77517	1214.58157	-709.85286	-1206.70954	1334.69596	-627.96803	-893.56841	1738.35923	-588.45461	-857.46695	1645.96444	-404.44307	-844.29339	1652.95476	-757.18869	-803.32111	1599.74796	-561.85915	-808.39783	1596.17984	-608.02687	-926.05357	1501.76486	-323.43730	-1102.58889	1342.90914	-333.94341	-1069.18089	1359.99485	-257.66455	-1001.56624	1196.50128	-262.49809	-986.16114	1074.70821	-262.83483	-1013.23660	1068.65852	-230.64026	-896.11165	1505.46276	-848.99641	-1041.94058	1327.95221	-845.74470	-1000.05474	1339.67453	-914.04898	-903.99031	1203.22184	-874.72804	-864.07853	1092.07483	-885.51959	-889.82307	1084.09032	-923.92204	-1137.28653	1181.35584	-477.94835	-1144.71464	1166.65476	-690.70367	-1127.83338	1178.50904	-479.02084	-1135.44638	1176.12974	-652.78010	
66	0.65000000	-925.90407	795.07399	-417.23861	-942.28143	671.51030	-432.61741	-1205.04432	453.38466	-434.22105	-1282.32832	440.19627	-485.45124	-1108.26477	349.71611	-384.65005	-1061.15255	360.89435	-456.91368	-974.64329	775.40510	-762.06530	-969.72282	659.51732	-736.89677	-1233.73128	424.88038	-731.43693	-1306.11587	405.99993	-679.83115	-1113.30696	343.95767	-768.30521	-1074.67677	361.33348	-699.78313	-1007.43568	577.85670	-456.16475	-997.18872	695.12277	-382.92923	-1055.95648	594.37271	-387.73018	-1036.78846	699.92450	-783.59851	-1082.63949	588.15354	-791.89337	-935.71016	1046.72271	-436.59629	-886.62028	946.10431	-449.06321	-897.57768	907.87565	-393.69332	-1004.49109	1002.98220	-356.14381	-949.57762	897.70817	-376.76705	-989.82616	1035.08722	-782.21025	-928.29411	912.73535	-767.59148	-1087.80148	986.50180	-811.98353	-1027.81160	862.69347	-796.66472	-1025.16734	1214.01632	-446.23554	-1200.14055	1329.50049	-526.07925	-1031.75031	1209.51908	-709.63348	-1204.53112	1328.25620	-627.65452	-893.22966	1733.10215	-588.89494	-856.80426	1640.38836	-405.28302	-843.69269	1647.70481	-757.49732	-801.71294	1594.71533	-562.56717	-806.92717	1591.33353	-608.55218	-922.06500	1495.92565	-323.65549	-1094.06608	1332.27586	-332.58651	-1061.85122	1351.59388	-255.89411	-986.21575	1191.19225	-260.62367	-964.54164	1070.38994	-260.56428	-990.90438	1063.02842	-228.15360	-891.50851	1500.46075	-850.00653	-1031.79180	1317.86722	-849.18357	-990.07696	1332.00328	-916.78264	-886.61412	1201.02278	-875.32939	-839.88124	1092.37575	-885.07426	-864.63122	1082.69506	-923.23169	-1134.13402	1175.20589	-477.86438	-1141.32099	1160.75670	-690.64536	-1124.65169	1172.40389	-478.93878	-1132.16211	1170.27625	-652.68488	
67	0.66000000	-918.66729	791.43291	-417.27221	-936.42124	667.91359	-433.15495	-1203.06403	454.62501	-434.50214	-1280.66851	442.46241	-485.52582	-1107.73351	350.11270	-384.83769	-1060.43831	360.64414	-457.07208	-966.94060	771.89014	-762.04509	-963.51473	655.71366	-736.24081	-1231.97303	426.29825	-732.07302	-1304.88552	408.35938	-680.75364	-1112.82981	343.74346	-768.70675	-1073.98982	360.90926	-699.89910	-1003.24451	575.46818	-456.86058	-990.92548	692.28706	-383.47066	-1051.12046	592.03456	-388.78938	-1029.51239	697.16374	-783.53628	-1077.26163	586.49797	-792.48126	-931.22724	1042.38194	-437.06032	-880.41834	942.92562	-448.82962	-891.52274	904.38043	-393.86199	-999.65570	998.31648	-355.84363	-942.92564	893.72409	-376.76875	-984.88263	1031.68809	-781.57977	-923.00867	908.65505	-768.97735	-1082.25012	981.87304	-811.65352	-1020.90304	859.18390	-797.93102	-1021.81027	1208.55843	-446.17585	-1197.88605	1322.98244	-525.79998	-1028.68289	1204.58586	-709.43581	-1202.26571	1321.94225	-627.32347	-893.21630	1728.23548	-589.28139	-856.27352	1635.37111	-406.08389	-843.18463	1643.01841	-757.80854	-800.27767	1590.15356	-563.01882	-805.25707	1586.86776	-609.25890	-918.14353	1490.73734	-323.76463	-1085.70187	1322.06992	-330.27737	-1054.28182	1343.91129	-253.47873	-969.86445	1187.45085	-258.29392	-941.08186	1068.18904	-258.09681	-966.43841	1059.60398	-225.14805	-886.75894	1496.32161	-851.19266	-1020.93604	1308.62946	-853.91779	-979.18256	1325.07676	-919.86718	-868.27683	1200.62425	-876.03451	-814.33951	1094.88984	-883.92355	-837.86970	1083.66994	-922.49413	-1130.64639	1169.08518	-477.81119	-1137.84022	1154.97038	-690.61407	-1121.12773	1166.27050	-478.94987	-1128.61881	1164.49201	-652.60996	
68	0.67000000	-911.73056	787.78122	-417.08228	-930.69677	664.26113	-433.64648	-1201.03354	455.81329	-434.81538	-1278.94477	444.48969	-485.82370	-1107.18875	350.43118	-384.97839	-1059.67445	360.34499	-457.27041	-959.73563	768.19943	-761.72669	-957.78722	651.74829	-735.42346	-1230.42593	427.47431	-732.76994	-1303.80340	410.39952	-681.80474	-1112.37304	343.44819	-769.09593	-1073.42632	360.49056	-700.16582	-999.14539	573.05652	-457.54723	-984.70370	689.37174	-383.79492	-1046.49650	589.99555	-389.58695	-1022.60627	694.18820	-783.42702	-1072.15500	584.48103	-792.70379	-927.00731	1038.45972	-436.82804	-874.91796	939.36845	-448.50833	-885.40414	900.77892	-394.00313	-994.47354	993.50897	-355.81195	-936.95282	890.23430	-376.38048	-980.11211	1028.27963	-780.78371	-918.01552	905.21914	-770.06819	-1076.89168	977.11084	-811.17679	-1014.32215	855.25406	-797.74031	-1018.49210	1203.45801	-446.00538	-1195.45820	1316.61892	-525.54508	-1025.47693	1200.07184	-709.38778	-1200.00571	1315.70629	-626.98413	-893.44930	1723.80151	-589.55468	-855.81937	1631.10833	-406.73684	-842.70885	1639.08265	-757.87864	-799.06916	1586.31068	-563.21311	-803.45404	1582.98840	-609.98782	-914.34787	1486.33106	-323.72393	-1076.96341	1312.79811	-327.13391	-1046.42134	1337.24572	-250.30203	-952.57607	1185.80834	-255.50136	-915.85637	1068.88180	-255.45841	-939.96231	1058.95136	-221.94505	-881.63903	1493.00733	-852.39401	-1009.37683	1299.71619	-858.74319	-967.36800	1319.24817	-923.47195	-848.99895	1202.37963	-876.86206	-787.48399	1100.52445	-882.49341	-809.57730	1087.79387	-922.42355	-1127.02004	1163.17996	-477.80118	-1134.15389	1149.44716	-690.63103	-1117.39634	1160.56215	-478.69628	-1125.18417	1158.99936	-652.42295	
